HIERARCHY
ROOT SpineBase
{
  OFFSET 0.000000 0.000000 0.000000
  CHANNELS 6 Xposition Yposition Zposition Zrotation Xrotation Yrotation
  JOINT SpineMid
  {
    OFFSET 0.000000 31.640187 0.000000
    CHANNELS 3 Zrotation Xrotation Yrotation
    JOINT SpineShoulder
    {
      OFFSET -0.008752 23.612663 -0.678208
      CHANNELS 3 Zrotation Xrotation Yrotation
      JOINT Neck
      {
        OFFSET -0.004107 7.826925 -0.561766
        CHANNELS 3 Zrotation Xrotation Yrotation
        JOINT Head
        {
          OFFSET -1.684565 11.055478 0.457739
          CHANNELS 3 Zrotation Xrotation Yrotation
          End Site
          {
            OFFSET 0 0 0
          }
        }
      }
      JOINT ShoulderLeft
      {
        OFFSET -18.062056 -4.703575 4.652668
        CHANNELS 3 Zrotation Xrotation Yrotation
        JOINT ElbowLeft
        {
          OFFSET -2.287657 -28.734471 -0.848552
          CHANNELS 3 Zrotation Xrotation Yrotation
          JOINT WristLeft
          {
            OFFSET -1.637144 -21.572302 -5.399663
            CHANNELS 3 Zrotation Xrotation Yrotation
            JOINT HandLeft
            {
              OFFSET 0.402565 -7.132762 0.490958
              CHANNELS 3 Zrotation Xrotation Yrotation
              JOINT HandTipLeft
              {
                OFFSET -0.723110 -6.172760 -1.722226
                CHANNELS 3 Zrotation Xrotation Yrotation
                End Site
                {
                  OFFSET 0 0 0
                }
              }
              JOINT ThumbLeft
              {
                OFFSET -4.196389 1.251272 -2.616684
                CHANNELS 3 Zrotation Xrotation Yrotation
                End Site
                {
                  OFFSET 0 0 0
                }
              }
            }
          }
        }
      }
      JOINT ShoulderRight
      {
        OFFSET 16.116111 -3.132680 -7.446894
        CHANNELS 3 Zrotation Xrotation Yrotation
        JOINT ElbowRight
        {
          OFFSET 5.934186 -26.200710 -2.084316
          CHANNELS 3 Zrotation Xrotation Yrotation
          JOINT WristRight
          {
            OFFSET 0.258741 -22.570086 -6.927058
            CHANNELS 3 Zrotation Xrotation Yrotation
            JOINT HandRight
            {
              OFFSET -2.274957 -5.941777 -1.989815
              CHANNELS 3 Zrotation Xrotation Yrotation
              JOINT HandTipRight
              {
                OFFSET -0.547922 -7.143110 -2.047168
                CHANNELS 3 Zrotation Xrotation Yrotation
                End Site
                {
                  OFFSET 0 0 0
                }
              }
              JOINT ThumbRight
              {
                OFFSET -3.494148 -0.548971 -2.342403
                CHANNELS 3 Zrotation Xrotation Yrotation
                End Site
                {
                  OFFSET 0 0 0
                }
              }
            }
          }
        }
      }
    }
  }
  JOINT HipLeft
  {
    OFFSET -6.637039 0.375958 -1.619440
    CHANNELS 3 Zrotation Xrotation Yrotation
    JOINT KneeLeft
    {
      OFFSET -1.725495 -34.535819 4.464545
      CHANNELS 3 Zrotation Xrotation Yrotation
      JOINT AnkleLeft
      {
        OFFSET -0.960216 -36.681080 10.796263
        CHANNELS 3 Zrotation Xrotation Yrotation
        JOINT FootLeft
        {
          OFFSET -2.614287 -6.785813 -7.412085
          CHANNELS 3 Zrotation Xrotation Yrotation
          End Site
          {
            OFFSET 0 0 0
          }
        }
      }
    }
  }
  JOINT HipRight
  {
    OFFSET 6.566353 1.484939 -6.014341
    CHANNELS 3 Zrotation Xrotation Yrotation
    JOINT KneeRight
    {
      OFFSET 8.639265 -31.962358 -2.413548
      CHANNELS 3 Zrotation Xrotation Yrotation
      JOINT AnkleRight
      {
        OFFSET 3.007930 -38.020720 6.729036
        CHANNELS 3 Zrotation Xrotation Yrotation
        JOINT FootRight
        {
          OFFSET -1.757571 -7.321081 -7.990894
          CHANNELS 3 Zrotation Xrotation Yrotation
          End Site
          {
            OFFSET 0 0 0
          }
        }
      }
    }
  }
}
MOTION
Frames: 14
Frame Time: 0.033333
6.058492 77.626754 354.458019 -0.000000 0.000000 18.410616 -0.000000 0.000000 -18.410616 -0.000000 0.000000 0.000000 -0.000000 0.000000 0.000000 0.000000 0.000000 0.000000 -0.000000 0.000000 0.000000 -0.000000 0.000000 0.000000 -0.000000 0.000000 0.000000 -0.000000 0.000000 0.000000 0.000000 0.000000 0.000000 0.000000 0.000000 0.000000 -0.000000 0.000000 0.000000 -0.000000 0.000000 0.000000 -0.000000 0.000000 0.000000 -0.000000 0.000000 0.000000 0.000000 0.000000 0.000000 0.000000 0.000000 0.000000 -0.000000 0.000000 -18.410616 -0.000000 0.000000 0.000000 -0.000000 0.000000 0.000000 0.000000 0.000000 0.000000 -0.000000 0.000000 -18.410616 -0.000000 0.000000 0.000000 -0.000000 0.000000 0.000000 0.000000 0.000000 0.000000
5.989719 77.647359 354.214577 -0.044224 0.277770 17.362867 -0.040684 -0.278310 -17.362859 -0.000000 0.000000 0.000000 -0.000000 0.000000 0.000000 0.000000 0.000000 0.000000 -0.622142 -1.846166 0.155348 -0.425120 0.806374 0.191093 -1.114129 4.888319 -0.173020 2.261161 -6.395461 0.293495 0.000000 0.000000 0.000000 0.000000 0.000000 0.000000 -0.000000 0.000000 0.000000 -0.995056 0.533347 0.315729 0.992146 -0.538742 -0.306433 -0.000000 0.000000 0.000000 0.000000 0.000000 0.000000 0.000000 0.000000 0.000000 -0.040684 -0.278310 -17.362859 -0.000000 0.000000 0.000000 -1.271216 2.997268 0.258381 0.000000 0.000000 0.000000 -0.040684 -0.278310 -17.362859 -0.000000 0.000000 0.000000 -0.033266 -4.520585 1.171150 0.000000 0.000000 0.000000
5.927021 77.665603 353.997980 -0.089583 0.523574 16.542524 -0.063201 -0.527409 -16.542406 -0.000000 0.000000 0.000000 1.282034 -0.111994 -0.068781 0.000000 0.000000 0.000000 -1.131206 -3.337517 0.266256 -0.707760 1.464527 0.351194 -1.791548 8.931527 -0.147898 3.938542 -11.705861 0.611537 0.000000 0.000000 0.000000 0.000000 0.000000 0.000000 -0.253685 1.078563 0.266793 -1.587766 -0.122673 0.293240 2.450559 -2.463589 -0.179376 -0.623887 1.495002 -0.353079 0.000000 0.000000 0.000000 0.000000 0.000000 0.000000 -0.063201 -0.527409 -16.542406 -0.000000 0.000000 0.000000 -2.209241 5.020897 0.544598 0.000000 0.000000 0.000000 -0.063201 -0.527409 -16.542406 0.605415 0.807348 0.166895 -0.899760 -8.156949 2.015044 0.000000 0.000000 0.000000
5.870397 77.681488 353.808228 -0.136064 0.737415 15.948391 -0.071794 -0.746418 -15.947983 -0.000000 0.000000 0.000000 1.836148 -0.117569 -0.091840 0.000000 0.000000 0.000000 -1.527164 -4.465835 0.341303 -0.841277 1.979917 0.461074 -2.138937 12.226245 -0.021774 5.103091 -15.962540 0.883110 0.000000 0.000000 0.000000 0.000000 0.000000 0.000000 -0.355094 1.516671 0.376345 -2.191368 -0.250063 0.386859 3.489257 -3.675715 -0.139080 -0.967924 2.386639 -0.563841 0.000000 0.000000 0.000000 0.000000 0.000000 0.000000 0.304883 -1.526037 -15.833781 -0.581184 -0.426338 -0.076662 -2.856119 7.274853 0.855045 0.000000 0.000000 0.000000 -0.071794 -0.746418 -15.947983 0.802442 1.116984 0.222830 -1.623462 -9.403952 2.765210 0.000000 0.000000 0.000000
5.819848 77.695013 353.645321 -0.183654 0.919316 15.579581 -0.069998 -0.934863 -15.578679 -0.000000 0.000000 0.000000 2.331340 -0.089266 -0.107994 0.000000 0.000000 0.000000 -1.810066 -5.226821 0.387280 -0.822235 2.357010 0.507392 -2.211825 14.859506 0.145100 5.779789 -19.199227 1.054060 0.000000 0.000000 0.000000 0.000000 0.000000 0.000000 -0.438084 1.883710 0.468522 -2.677850 -0.412309 0.452116 4.416584 -4.871984 -0.020862 -1.331289 3.370316 -0.794390 0.000000 0.000000 0.000000 0.000000 0.000000 0.000000 0.354121 -1.897996 -15.441379 -0.654866 -0.491332 -0.084156 -3.259585 7.928039 1.131596 0.000000 0.000000 0.000000 -0.069998 -0.934863 -15.578679 0.928956 1.362874 0.261573 -2.584244 -8.603910 3.309198 0.000000 0.000000 0.000000
5.775375 77.706178 353.509259 -0.232340 1.069316 15.435810 -0.060641 -1.092582 -15.434220 -0.000000 0.000000 0.000000 2.767087 -0.027026 -0.117624 0.000000 0.000000 0.000000 -1.979964 -5.618562 0.409010 -0.650388 2.597769 0.483060 -2.021927 16.903932 0.314258 5.955097 -21.451793 1.077194 0.000000 0.000000 0.000000 0.000000 0.000000 0.000000 -0.501781 2.177611 0.542434 -3.052167 -0.605328 0.493155 5.239969 -6.049250 0.170585 -2.494425 3.470855 -0.693789 0.000000 0.000000 0.000000 0.000000 0.000000 0.000000 0.364467 -2.202160 -15.283197 -0.666241 -0.512569 -0.083062 -3.420358 7.790447 1.380063 0.000000 0.000000 0.000000 -0.060641 -1.092582 -15.434220 0.985279 1.544729 0.283798 -3.774088 -5.760612 3.672733 0.000000 0.000000 0.000000
5.760369 77.727838 353.348800 -0.271881 1.210090 15.603328 -0.063612 -1.238621 -15.601145 -0.000000 0.000000 0.000000 3.320788 0.089348 -0.125947 0.000000 0.000000 0.000000 -2.135372 -5.252048 0.383494 0.231407 2.814565 0.224471 -2.432684 18.134393 0.672345 5.509175 -22.429367 0.884891 0.000000 0.000000 0.000000 0.000000 0.000000 0.000000 -0.437905 2.424243 0.592759 -3.427592 -1.082980 0.501968 6.480966 -7.791105 0.618705 -3.725994 4.440755 -0.837614 0.000000 0.000000 0.000000 0.000000 0.000000 0.000000 0.264687 -2.540032 -15.446155 -0.677005 -0.408735 -0.099210 -2.633711 4.942834 1.635134 0.000000 0.000000 0.000000 -0.063612 -1.238621 -15.601145 0.929912 1.748800 0.289348 -5.654013 -0.927452 4.449372 0.000000 0.000000 0.000000
5.736358 77.740430 353.227944 -0.320311 1.303471 15.843212 -0.091827 -0.445550 -15.848744 0.287124 -0.849738 0.010059 3.721469 0.217070 -0.127472 0.000000 0.000000 0.000000 -1.962950 -4.607513 0.345953 0.489063 2.369330 0.130755 -1.196509 19.505503 0.742400 4.676741 -21.500212 0.229447 0.000000 0.000000 0.000000 0.000000 0.000000 0.000000 -0.338363 2.541583 0.609486 -3.685790 -1.348694 0.509771 7.324204 -8.924278 0.920805 -4.162148 4.349240 -1.006441 0.000000 0.000000 0.000000 0.000000 0.000000 0.000000 0.061634 -2.708882 -15.710339 -0.354103 -0.218903 -0.045903 -0.225773 -6.756738 3.489843 0.000000 0.000000 0.000000 -0.323445 -2.193119 -16.088142 0.915547 2.711861 0.513667 -7.807566 5.588217 5.266044 0.000000 0.000000 0.000000
5.707326 77.754980 353.202160 -0.384688 1.341392 16.593389 -0.087236 -0.421692 -16.599870 0.348013 -0.912290 0.012425 3.925888 0.424151 -0.111916 0.000000 0.000000 0.000000 -1.742842 -3.887046 0.301843 0.779532 1.792826 0.031647 0.958841 20.001879 0.603684 3.776141 -19.403740 -0.664983 0.000000 0.000000 0.000000 0.000000 0.000000 0.000000 -0.398047 2.611475 0.631658 -3.584255 -1.623634 0.464479 7.692847 -10.099596 1.410224 -4.452735 3.459026 -1.208444 0.000000 0.000000 0.000000 0.000000 0.000000 0.000000 -0.103778 -2.570122 -16.502443 0.074882 -0.300140 0.043593 -0.981995 -1.970127 1.963778 0.000000 0.000000 0.000000 -0.319390 -2.441796 -16.894587 0.849575 2.759271 0.552712 -8.932397 11.911658 5.254250 0.000000 0.000000 0.000000
5.648749 77.760136 353.207485 -0.444883 1.368280 17.106605 -0.067151 -0.413420 -17.113237 0.387626 -0.953325 0.014002 3.933930 0.589219 -0.092892 0.000000 0.000000 0.000000 -1.420565 -3.363762 0.268085 1.002958 1.508960 -0.085908 3.593353 20.781038 0.412951 0.112040 -19.013138 -1.653634 0.000000 0.000000 0.000000 0.000000 0.000000 0.000000 -0.447471 2.668313 0.649837 -3.669323 -1.820283 0.474077 7.755617 -10.381839 1.554581 -5.023907 4.110693 -1.128447 0.000000 0.000000 0.000000 0.000000 0.000000 0.000000 -0.203612 -2.461754 -17.045651 0.444824 -0.310522 0.125101 -1.394857 -2.584346 2.349783 0.000000 0.000000 0.000000 -0.287476 -2.671006 -17.460407 0.771893 2.833990 0.593993 -9.856855 22.615400 4.365505 0.000000 0.000000 0.000000
5.586381 77.761152 353.297133 -0.507889 1.335329 17.701834 -0.046078 -0.403180 -17.708907 0.060874 -0.215018 -0.014280 4.164495 0.041236 0.009832 0.000000 0.000000 0.000000 -0.661098 -3.649313 0.252616 1.173191 1.479863 -0.219627 6.149127 19.412392 0.228615 -3.769804 -15.810282 -2.662236 0.000000 0.000000 0.000000 0.000000 0.000000 0.000000 -0.393408 1.866207 0.682733 -3.141650 -1.638338 0.426638 7.304707 -10.642759 1.760413 -5.554898 6.198109 -1.059213 0.000000 0.000000 0.000000 0.000000 0.000000 0.000000 -0.199982 -2.264130 -17.661132 0.738323 -0.324527 0.198956 -1.351581 -1.911912 1.687446 0.000000 0.000000 0.000000 -0.224628 -2.789725 -18.091749 0.671693 2.728732 0.608579 -9.922780 26.695108 3.888248 0.000000 0.000000 0.000000
5.495288 77.802838 353.302742 -0.579668 1.348328 17.643753 -0.026435 -0.420776 -17.651258 0.061640 -0.224747 -0.016421 4.131708 0.124527 0.024831 0.000000 0.000000 0.000000 -0.276590 -3.757483 0.267902 1.281999 1.966746 -0.370673 7.971041 20.638665 0.136888 -4.753840 -20.633216 -2.800452 0.000000 0.000000 0.000000 0.000000 0.000000 0.000000 -0.380800 1.863905 0.687355 -3.341514 -1.561410 0.493955 7.313415 -9.950934 1.414788 -5.928537 5.904100 -0.687674 0.000000 0.000000 0.000000 0.000000 0.000000 0.000000 0.143821 -1.460569 -17.635099 1.224771 -1.376145 0.409897 -1.737973 -1.367470 1.273009 0.000000 0.000000 0.000000 -0.131618 -2.695087 -17.994278 0.940695 2.349566 0.591830 -9.780667 26.457362 3.573284 0.000000 0.000000 0.000000
5.416297 77.891621 353.248222 -0.614559 1.362171 17.571370 -0.007839 -0.437855 -17.578585 0.063670 -0.237143 -0.016869 3.764018 0.175549 0.043866 0.000000 0.000000 0.000000 0.028279 -3.885915 0.282135 1.100975 2.718971 -0.449804 8.590267 20.434284 0.209698 -3.938145 -23.209241 -2.541708 0.000000 0.000000 0.000000 0.000000 0.000000 0.000000 -0.227527 1.966562 0.696875 -3.592508 -1.676048 0.502597 7.057877 -9.456258 1.266692 -6.449933 6.489521 -0.371979 0.000000 0.000000 0.000000 0.000000 0.000000 0.000000 0.174764 -1.484111 -17.561800 1.146046 -1.451533 0.388494 -2.686942 4.872145 0.111916 0.000000 0.000000 0.000000 -0.007496 -2.484118 -17.850448 1.137092 1.880322 0.545665 -8.642330 21.944054 2.968207 0.000000 0.000000 0.000000
5.468823 77.950762 353.190712 -0.691381 1.351751 17.809988 -0.028948 -0.446162 -17.819669 0.053595 -0.248788 -0.021953 3.785465 0.509835 0.089387 0.000000 0.000000 0.000000 0.204984 -3.328800 0.250905 1.211155 2.981047 -0.515446 7.175288 17.437466 0.599108 -2.194108 -21.895085 -1.989788 0.000000 0.000000 0.000000 0.000000 0.000000 0.000000 0.035304 2.071427 0.706163 -3.754039 -1.852750 0.486199 6.926697 -9.606880 1.402049 -6.764217 7.340301 -0.332654 0.000000 0.000000 0.000000 0.000000 0.000000 0.000000 0.244936 -1.498389 -17.798629 0.636885 -1.239237 0.226097 -3.381440 11.504382 -0.767998 0.000000 0.000000 0.000000 0.148338 -2.335774 -18.037774 1.196817 1.632349 0.513275 -8.189950 19.645964 2.804394 0.000000 0.000000 0.000000
